<svg xmlns="http://www.w3.org/2000/svg" xmlns:xlink="http://www.w3.org/1999/xlink" viewBox="0,0,255.99704,255.99704" width="32px" height="32px" fill-rule="nonzero"><g transform="translate(31.99963,31.99963) scale(0.75,0.75)"><g fill="none" fill-rule="nonzero" stroke="#b7b7b7" stroke-width="16" stroke-linecap="butt" stroke-linejoin="miter" stroke-miterlimit="10" stroke-dasharray="" stroke-dashoffset="0" font-family="none" font-weight="none" font-size="none" text-anchor="none" style="mix-blend-mode: normal"><path d="M127.99852,239.25428c-61.44486,0 -111.25576,-49.8109 -111.25576,-111.25576v0c0,-61.44486 49.8109,-111.25576 111.25576,-111.25576v0c61.44486,0 111.25576,49.8109 111.25576,111.25576v0c0,61.44486 -49.8109,111.25576 -111.25576,111.25576z" id="shape"></path></g><g fill="#b9b9b9" fill-rule="nonzero" stroke="none" stroke-width="1" stroke-linecap="butt" stroke-linejoin="miter" stroke-miterlimit="10" stroke-dasharray="" stroke-dashoffset="0" font-family="none" font-weight="none" font-size="none" text-anchor="none" style="mix-blend-mode: normal"><g transform="scale(8,8)"><path d="M16,4c-3.85547,0 -7,3.14453 -7,7c0,2.39453 1.21875,4.51953 3.0625,5.78125c-3.57812,1.52344 -6.0625,5.07813 -6.0625,9.21875h2c0,-4.46484 3.53516,-8 8,-8c4.46484,0 8,3.53516 8,8h2c0,-4.14062 -2.48437,-7.69531 -6.0625,-9.21875c1.84375,-1.26172 3.0625,-3.38672 3.0625,-5.78125c0,-3.85547 -3.14453,-7 -7,-7zM16,6c2.77344,0 5,2.22656 5,5c0,2.77344 -2.22656,5 -5,5c-2.77344,0 -5,-2.22656 -5,-5c0,-2.77344 2.22656,-5 5,-5z"></path></g></g></g></svg>